<svg style="height: 512px; width: 512px;" xmlns="http://www.w3.org/2000/svg" viewBox="0 0 512 512"><path d="M0 0h512v512H0z" fill="#ffffff" fill-opacity="1"></path><g class="" style="touch-action: none;" transform="translate(0,0)"><g><path d="M404.7 79.78L401.9 79.78C394.4 80.04 386.1 81.51 377.1 84.08C359.1 89.24 338.7 98.64 317.8 109.86C275.9 132.26 232 161.86 196.3 178.46C169.9 190.86 137 198.86 106.5 205.96C76 213.06 47.55 219.36 32.14 226.56C25.01 229.96 21.24 233.46 19.43 236.46C17.63 239.36 17.33 241.66 17.99 244.86C19.31 251.26 26.56 260.26 36.48 266.76L39.77 268.86C202.4 266.56 329.2 255.16 427.5 216.26C429.6 198.66 434.2 181.56 444 167.76L444 167.66L444.1 167.56C468.6 135.36 453 94.98 421.7 82.67C416.7 80.72 411 79.76 404.7 79.74Z" class="" fill="#417505" fill-opacity="1"></path><path d="M426.6 264.9C382.4 290 322.8 301.9 257.4 306.1C188.7 310.5 113.7 306.2 43.88 298.3L45.77 312.3C76.96 315.5 144.3 324.1 218.6 323.8C295.8 323.5 378.2 312.5 427.2 277.6C427 273.5 426.8 269.3 426.6 264.9Z" class="selected" fill="#417505" fill-opacity="1"></path><path d="M433.7 295.1C386.8 326.6 319.9 338 253.8 340.9C298.5 379.9 343.1 396 381.1 400C426.3 404.8 462.6 391.3 475.9 380.2C488.9 369.4 493.4 360.7 494.2 354C494.9 347.2 492.2 340.7 486 333.5C474.7 320.1 452.5 307.1 433.7 295.1Z" class="" fill="#000000" fill-opacity="1"></path></g></g></svg>